<svg id="logo-siux" alt="Siux logo" xmlns="http://www.w3.org/2000/svg" viewBox="0 0 1720 1720" shape-rendering="geometricPrecision" text-rendering="geometricPrecision" style="height: 28px;">
	<path class="" d="M860,226L1095.53,626.341L860,1037.16L624.469,626.341L860,226Z" transform="matrix(1 0 0 1 0.0005 -3.93053)" clip-rule="evenodd" fill="#000" fill-rule="evenodd" stroke="none" stroke-width="1" stroke-miterlimit="1">
	</path>
	<path d="M549.207,754.264L860,1282.53L1170.79,754.264L1606,1494L1121.92,1494L979.958,1246.4L860,1450.29L740.042,1246.4L598.085,1494L114,1494L549.207,754.264ZM690.379,1161.98L549.207,922.028L262.743,1408.94L548.792,1408.94L690.379,1161.98ZM1029.62,1161.98L1171.21,1408.94L1457.26,1408.94L1170.79,922.028L1029.62,1161.98Z" transform="matrix(1 0 0 1 0 3.93053)" clip-rule="evenodd" fill="#000" fill-rule="evenodd" stroke="none" stroke-width="1" stroke-miterlimit="1">
	</path>
</svg>
