<svg width="82" height="82" viewBox="0 0 82 82" fill="none" xmlns="http://www.w3.org/2000/svg">
	<rect width="82" height="82" rx="20" fill="#0C0C0C" />
	<path d="M25.5339 60.2594C25.5058 60.0101 25.39 59.817 25.1863 59.6801C24.9827 59.5414 24.7264 59.4721 24.4174 59.4721C24.1962 59.4721 24.0048 59.5072 23.8433 59.5774C23.6818 59.6459 23.5563 59.7407 23.4668 59.8618C23.379 59.9812 23.3351 60.1172 23.3351 60.27C23.3351 60.3981 23.3649 60.5087 23.4246 60.6017C23.4861 60.6948 23.5659 60.7729 23.6643 60.8361C23.7643 60.8976 23.8714 60.9493 23.9855 60.9915C24.0996 61.0319 24.2093 61.0652 24.3147 61.0915L24.8413 61.2285C25.0134 61.2706 25.1898 61.3277 25.3706 61.3996C25.5515 61.4716 25.7191 61.5664 25.8736 61.684C26.0281 61.8017 26.1527 61.9474 26.2475 62.1212C26.3441 62.295 26.3924 62.503 26.3924 62.7453C26.3924 63.0507 26.3134 63.322 26.1554 63.559C25.9991 63.796 25.7718 63.9829 25.4733 64.1199C25.1767 64.2568 24.8176 64.3253 24.3963 64.3253C23.9925 64.3253 23.6432 64.2612 23.3483 64.133C23.0533 64.0049 22.8225 63.8232 22.6557 63.5879C22.4889 63.3509 22.3968 63.07 22.3792 62.7453H23.1955C23.2113 62.9401 23.2745 63.1025 23.3851 63.2324C23.4975 63.3606 23.6406 63.4563 23.8144 63.5195C23.9899 63.5809 24.1821 63.6116 24.391 63.6116C24.621 63.6116 24.8255 63.5756 25.0046 63.5037C25.1854 63.4299 25.3276 63.3281 25.4312 63.1982C25.5348 63.0665 25.5866 62.9129 25.5866 62.7374C25.5866 62.5776 25.5409 62.4468 25.4496 62.345C25.3601 62.2432 25.2381 62.1589 25.0836 62.0922C24.9309 62.0255 24.758 61.9667 24.5648 61.9158L23.9276 61.742C23.4957 61.6244 23.1534 61.4514 22.9006 61.2232C22.6496 60.995 22.524 60.693 22.524 60.3173C22.524 60.0066 22.6083 59.7354 22.7768 59.5037C22.9454 59.2719 23.1736 59.092 23.4615 58.9638C23.7494 58.8339 24.0742 58.769 24.4358 58.769C24.801 58.769 25.1231 58.833 25.4022 58.9612C25.6831 59.0893 25.9043 59.2658 26.0658 59.4905C26.2273 59.7134 26.3116 59.9698 26.3186 60.2594H25.5339ZM29.1009 59.5432V58.8427H33.2747V59.5432H31.592V64.2357H30.781V59.5432H29.1009ZM39.6673 58.8427H40.4836V62.3898C40.4836 62.7672 40.3949 63.1016 40.2176 63.3931C40.0403 63.6827 39.791 63.9109 39.4698 64.0777C39.1485 64.2427 38.7719 64.3253 38.3401 64.3253C37.91 64.3253 37.5343 64.2427 37.213 64.0777C36.8917 63.9109 36.6425 63.6827 36.4652 63.3931C36.2878 63.1016 36.1992 62.7672 36.1992 62.3898V58.8427H37.0129V62.3239C37.0129 62.568 37.0664 62.7848 37.1735 62.9744C37.2824 63.164 37.436 63.3132 37.6343 63.422C37.8327 63.5291 38.068 63.5827 38.3401 63.5827C38.6139 63.5827 38.8501 63.5291 39.0484 63.422C39.2486 63.3132 39.4013 63.164 39.5066 62.9744C39.6137 62.7848 39.6673 62.568 39.6673 62.3239V58.8427ZM45.4146 64.2357H43.6688V58.8427H45.4699C45.9984 58.8427 46.4522 58.9507 46.8314 59.1666C47.2106 59.3808 47.5011 59.6889 47.703 60.0909C47.9066 60.4911 48.0085 60.9713 48.0085 61.5313C48.0085 62.0931 47.9058 62.5759 47.7004 62.9796C47.4967 63.3834 47.2018 63.6941 46.8156 63.9118C46.4293 64.1278 45.9624 64.2357 45.4146 64.2357ZM44.4825 63.5247H45.3699C45.7807 63.5247 46.1221 63.4475 46.3942 63.293C46.6663 63.1367 46.87 62.9112 47.0052 62.6162C47.1403 62.3195 47.2079 61.9579 47.2079 61.5313C47.2079 61.1082 47.1403 60.7492 47.0052 60.4543C46.8717 60.1594 46.6725 59.9355 46.4074 59.7828C46.1423 59.6301 45.8132 59.5537 45.4199 59.5537H44.4825V63.5247ZM51.8362 58.8427V64.2357H51.0225V58.8427H51.8362ZM59.708 61.5392C59.708 62.115 59.6026 62.6101 59.392 63.0244C59.1813 63.4369 58.8925 63.7547 58.5256 63.9777C58.1605 64.1989 57.7453 64.3095 57.2801 64.3095C56.8131 64.3095 56.3961 64.1989 56.0292 63.9777C55.6641 63.7547 55.3762 63.4361 55.1655 63.0218C54.9548 62.6075 54.8495 62.1133 54.8495 61.5392C54.8495 60.9634 54.9548 60.4692 55.1655 60.0567C55.3762 59.6423 55.6641 59.3246 56.0292 59.1034C56.3961 58.8804 56.8131 58.769 57.2801 58.769C57.7453 58.769 58.1605 58.8804 58.5256 59.1034C58.8925 59.3246 59.1813 59.6423 59.392 60.0567C59.6026 60.4692 59.708 60.9634 59.708 61.5392ZM58.9022 61.5392C58.9022 61.1003 58.8311 60.7308 58.6889 60.4306C58.5484 60.1286 58.3553 59.9004 58.1096 59.7459C57.8655 59.5897 57.589 59.5116 57.2801 59.5116C56.9693 59.5116 56.692 59.5897 56.4479 59.7459C56.2039 59.9004 56.0108 60.1286 55.8686 60.4306C55.7282 60.7308 55.6579 61.1003 55.6579 61.5392C55.6579 61.9781 55.7282 62.3485 55.8686 62.6505C56.0108 62.9507 56.2039 63.1789 56.4479 63.3351C56.692 63.4896 56.9693 63.5669 57.2801 63.5669C57.589 63.5669 57.8655 63.4896 58.1096 63.3351C58.3553 63.1789 58.5484 62.9507 58.6889 62.6505C58.8311 62.3485 58.9022 61.9781 58.9022 61.5392Z" fill="#FDFDFD" />
	<path d="M27.5781 48.9899C27.5486 48.6658 27.4175 48.4138 27.1847 48.2341C26.9549 48.0514 26.6263 47.9601 26.199 47.9601C25.9161 47.9601 25.6804 47.9969 25.4918 48.0706C25.3032 48.1442 25.1618 48.2459 25.0675 48.3755C24.9732 48.5022 24.9246 48.6481 24.9216 48.8131C24.9157 48.9487 24.9423 49.068 25.0012 49.1711C25.0631 49.2743 25.1515 49.3656 25.2664 49.4452C25.3843 49.5218 25.5257 49.5896 25.6907 49.6485C25.8557 49.7074 26.0414 49.759 26.2477 49.8032L27.0256 49.98C27.4735 50.0773 27.8683 50.2069 28.2101 50.369C28.5549 50.531 28.8437 50.724 29.0765 50.948C29.3122 51.1719 29.4905 51.4298 29.6113 51.7215C29.7321 52.0132 29.794 52.3403 29.7969 52.7027C29.794 53.2744 29.6496 53.765 29.3638 54.1746C29.0779 54.5842 28.6669 54.898 28.1306 55.1161C27.5972 55.3341 26.9534 55.4432 26.199 55.4432C25.4417 55.4432 24.7817 55.3297 24.2189 55.1028C23.656 54.8759 23.2185 54.5312 22.9061 54.0685C22.5938 53.6059 22.4332 53.021 22.4243 52.3138H24.5194C24.5371 52.6055 24.6152 52.8486 24.7537 53.0431C24.8922 53.2376 25.0822 53.3849 25.3239 53.4851C25.5684 53.5853 25.8513 53.6354 26.1725 53.6354C26.4672 53.6354 26.7176 53.5956 26.9239 53.516C27.1331 53.4365 27.2937 53.326 27.4057 53.1845C27.5177 53.0431 27.5751 52.881 27.5781 52.6983C27.5751 52.5274 27.5221 52.3816 27.419 52.2607C27.3158 52.137 27.1567 52.0309 26.9416 51.9425C26.7294 51.8512 26.4583 51.7672 26.1283 51.6906L25.1824 51.4696C24.3986 51.2898 23.7813 50.9996 23.3304 50.5988C22.8796 50.1951 22.6556 49.65 22.6586 48.9634C22.6556 48.4035 22.8059 47.9129 23.1094 47.4915C23.4129 47.0702 23.8328 46.7416 24.3691 46.5059C24.9054 46.2701 25.5169 46.1523 26.2034 46.1523C26.9048 46.1523 27.5133 46.2716 28.0289 46.5103C28.5475 46.746 28.9498 47.0775 29.2356 47.5048C29.5214 47.9321 29.6673 48.4271 29.6732 48.9899H27.5781ZM35.8282 46.276V55.3282H33.6402V46.276H35.8282ZM45.4164 46.276H47.5999V52.1149C47.5999 52.7897 47.4393 53.3775 47.1181 53.8785C46.7969 54.3765 46.349 54.7625 45.7744 55.0365C45.1998 55.3076 44.5324 55.4432 43.7721 55.4432C43.0031 55.4432 42.3312 55.3076 41.7566 55.0365C41.182 54.7625 40.7356 54.3765 40.4173 53.8785C40.0991 53.3775 39.94 52.7897 39.94 52.1149V46.276H42.1279V51.9248C42.1279 52.2372 42.1957 52.5156 42.3312 52.7602C42.4697 53.0048 42.6627 53.1963 42.9102 53.3348C43.1578 53.4733 43.4451 53.5426 43.7721 53.5426C44.0992 53.5426 44.3851 53.4733 44.6296 53.3348C44.8772 53.1963 45.0702 53.0048 45.2087 52.7602C45.3471 52.5156 45.4164 52.2372 45.4164 51.9248V46.276ZM53.9239 46.276L55.577 49.1358H55.6478L57.3185 46.276H59.7672L57.0356 50.8021L59.8556 55.3282H57.345L55.6478 52.4375H55.577L53.8797 55.3282H51.3868L54.1936 50.8021L51.4576 46.276H53.9239Z" fill="#FDFDFD" />
	<path fill-rule="evenodd" clip-rule="evenodd" d="M40.1531 16.2713C40.4862 15.705 40.6527 15.4218 40.9008 15.4218C41.1489 15.4218 41.3155 15.705 41.6486 16.2713L45.3834 22.6215C45.508 22.8333 45.5703 22.9392 45.571 23.056C45.5716 23.1728 45.5105 23.2794 45.3883 23.4926L41.6534 30.009C41.3193 30.5921 41.1522 30.8836 40.9008 30.8836C40.6495 30.8836 40.4824 30.5921 40.1482 30.009L36.4133 23.4926C36.2911 23.2794 36.23 23.1728 36.2307 23.056C36.2314 22.9392 36.2936 22.8333 36.4182 22.6215L40.1531 16.2713Z" fill="#FDFDFD" />
	<path fill-rule="evenodd" clip-rule="evenodd" d="M33.8899 26.844C34.2258 26.2649 34.3937 25.9754 34.6445 25.9762C34.8953 25.9771 35.0613 26.2677 35.3934 26.849L40.0252 34.9566C40.4136 35.6364 40.6078 35.9763 40.9002 35.9763C41.1926 35.9762 41.3866 35.6361 41.7746 34.9561L46.4003 26.8484C46.7285 26.2731 46.8926 25.9855 47.1418 25.9832C47.3911 25.9809 47.5604 26.2654 47.8992 26.8346L55.2196 39.1337C55.5658 39.7153 55.7389 40.0061 55.6142 40.2255C55.4894 40.4448 55.151 40.4448 54.4742 40.4448H46.728C46.4838 40.4448 46.3616 40.4448 46.261 40.3868C46.1604 40.3287 46.0993 40.223 45.977 40.0115L43.7267 36.1188C43.5588 35.8284 43.4749 35.6832 43.3493 35.6835C43.2238 35.6839 43.1407 35.8295 42.9744 36.1209L41.6543 38.4349C41.3201 39.0206 41.153 39.3135 40.9012 39.3135C40.6493 39.3136 40.4821 39.0208 40.1476 38.4353L38.8309 36.1306C38.6637 35.838 38.5802 35.6917 38.4543 35.6917C38.3284 35.6917 38.2448 35.838 38.0777 36.1306L35.8626 40.0077C35.7408 40.221 35.6798 40.3276 35.5789 40.3862C35.4779 40.4448 35.3551 40.4448 35.1094 40.4448H27.5061C26.8369 40.4448 26.5023 40.4448 26.3772 40.2276C26.2521 40.0103 26.4199 39.7209 26.7557 39.1421L33.8899 26.844ZM37.3989 34.0542C37.4589 33.9492 37.4889 33.8966 37.4889 33.8391C37.4889 33.7815 37.4589 33.729 37.3989 33.6239L35.009 29.4406C34.8429 29.15 34.7599 29.0046 34.6345 29.0042C34.5091 29.0038 34.4251 29.1486 34.2572 29.4381L29.1894 38.1741C29.0216 38.4635 28.9376 38.6082 29.0002 38.7168C29.0627 38.8254 29.23 38.8254 29.5646 38.8254H34.4213C34.5441 38.8254 34.6055 38.8254 34.656 38.7961C34.7065 38.7668 34.737 38.7135 34.7979 38.6069L37.3989 34.0542ZM44.4013 33.6201C44.341 33.7257 44.3109 33.7785 44.311 33.8363C44.3112 33.8942 44.3416 33.9468 44.4025 34.0521L47.0366 38.6088C47.0978 38.7145 47.1283 38.7674 47.1786 38.7964C47.2289 38.8254 47.29 38.8254 47.4121 38.8254H52.3887C52.7271 38.8254 52.8963 38.8254 52.9587 38.7157C53.021 38.6061 52.9345 38.4607 52.7614 38.1699L47.5482 29.411C47.3788 29.1265 47.2941 28.9842 47.1695 28.9853C47.0449 28.9865 46.9628 29.1303 46.7987 29.4179L44.4013 33.6201Z" fill="#FDFDFD" />
</svg>
